HIERARCHY
ROOT root
{
	OFFSET 0.000000 0.000000 0.000000
	CHANNELS 6 Xposition Yposition Zposition Zrotation Yrotation Xrotation
	JOINT lhip
	{
		OFFSET 0.058581 -0.082280 -0.017664
		CHANNELS 3 Zrotation Yrotation Xrotation
		JOINT lknee
		{
			OFFSET 0.043451 -0.386469 0.008037
			CHANNELS 3 Zrotation Yrotation Xrotation
			JOINT lankle
			{
				OFFSET -0.014790 -0.426874 -0.037428
				CHANNELS 3 Zrotation Yrotation Xrotation
				JOINT ltoe
				{
					OFFSET 0.041054 -0.060286 0.122042
					CHANNELS 3 Zrotation Yrotation Xrotation
					End Site
					{
						OFFSET 0.000000 0.000000 0.000000
					}
				}
			}
		}
	}
	JOINT rhip
	{
		OFFSET -0.060310 -0.090513 -0.013543
		CHANNELS 3 Zrotation Yrotation Xrotation
		JOINT rknee
		{
			OFFSET -0.043257 -0.383688 -0.004843
			CHANNELS 3 Zrotation Yrotation Xrotation
			JOINT rankle
			{
				OFFSET 0.019056 -0.420046 -0.034562
				CHANNELS 3 Zrotation Yrotation Xrotation
				JOINT rtoe
				{
					OFFSET -0.034840 -0.062106 0.130323
					CHANNELS 3 Zrotation Yrotation Xrotation
					End Site
					{
						OFFSET 0.000000 0.000000 0.000000
					}
				}
			}
		}
	}
	JOINT lowerback
	{
		OFFSET 0.004439 0.124404 -0.038385
		CHANNELS 3 Zrotation Yrotation Xrotation
		JOINT upperback
		{
			OFFSET 0.004488 0.137956 0.026820
			CHANNELS 3 Zrotation Yrotation Xrotation
			JOINT chest
			{
				OFFSET -0.002265 0.056032 0.002855
				CHANNELS 3 Zrotation Yrotation Xrotation
				JOINT lowerneck
				{
					OFFSET -0.013390 0.211636 -0.033468
					CHANNELS 3 Zrotation Yrotation Xrotation
					JOINT upperneck
					{
						OFFSET 0.010113 0.088937 0.050410
						CHANNELS 3 Zrotation Yrotation Xrotation
						End Site
						{
							OFFSET 0.000000 0.000000 0.000000
						}
					}
				}
				JOINT lclavicle
				{
					OFFSET 0.071702 0.114000 -0.018898
					CHANNELS 3 Zrotation Yrotation Xrotation
					JOINT lshoulder
					{
						OFFSET 0.122921 0.045205 -0.019046
						CHANNELS 3 Zrotation Yrotation Xrotation
						JOINT lelbow
						{
							OFFSET 0.255332 -0.015649 -0.022946
							CHANNELS 3 Zrotation Yrotation Xrotation
							JOINT lwrist
							{
								OFFSET 0.265709 0.012698 -0.007375
								CHANNELS 3 Zrotation Yrotation Xrotation
								End Site
								{
									OFFSET 0.000000 0.000000 0.000000
								}
							}
						}
					}
				}
				JOINT rclavicle
				{
					OFFSET -0.082954 0.112472 -0.023707
					CHANNELS 3 Zrotation Yrotation Xrotation
					JOINT rshoulder
					{
						OFFSET -0.113228 0.046853 -0.008472
						CHANNELS 3 Zrotation Yrotation Xrotation
						JOINT relbow
						{
							OFFSET -0.260127 -0.014369 -0.031269
							CHANNELS 3 Zrotation Yrotation Xrotation
							JOINT rwrist
							{
								OFFSET -0.269108 0.006794 -0.006027
								CHANNELS 3 Zrotation Yrotation Xrotation
								End Site
								{
									OFFSET 0.000000 0.000000 0.000000
								}
							}
						}
					}
				}
			}
		}
	}
}
MOTION
Frames: 12
Frame Time: 0.033333
0.312055 0.157609 0.988794 95.487934 5.677112 112.444118 15.445552 3.169818 -29.333812 -1.865242 5.086893 6.961788 -4.468457 0.152988 -0.260119 0.000000 -0.000000 0.000000 1.433823 -2.715206 -26.458677 0.501426 -13.479706 5.173179 5.260870 -3.740879 -1.917903 0.000000 -0.000000 0.000000 -10.053746 6.799507 23.206452 -0.647632 -2.559783 -6.206861 2.750027 1.845804 -0.572943 -2.718193 4.384442 -14.542132 15.629459 -3.760289 -17.577199 -1.559149 -26.210106 -18.612978 -60.863490 -58.990683 34.536078 159.146126 -42.330770 -139.269316 34.979784 -13.049116 -25.871155 6.609950 33.066530 -8.511502 60.343393 61.302245 27.891078 -170.168491 40.721581 -160.017088 -36.838008 12.630526 -33.053864 
0.312918 0.158718 0.988874 95.310845 5.429686 112.428361 15.047035 2.988476 -29.370043 -1.657931 5.404737 7.144554 -4.388720 0.005577 -0.335371 0.000000 -0.000000 0.000000 1.109258 -2.849104 -26.525253 0.404768 -13.667780 5.429236 5.313427 -3.360854 -2.087111 0.000000 -0.000000 0.000000 -9.505966 6.586921 22.978609 -0.702477 -2.682330 -6.453131 2.677747 1.833438 -0.430157 -2.647370 4.708194 -13.685028 15.390884 -4.027714 -17.815787 -1.466324 -26.416771 -18.247613 -60.599909 -58.854762 33.871106 159.629020 -42.690838 -138.495585 35.644218 -14.786722 -22.155104 6.732481 33.167169 -7.994955 61.859633 61.319353 27.838937 -170.544894 41.329583 -159.320910 -36.320389 14.611097 -30.479835 
0.313313 0.159043 0.988916 95.120893 5.325982 112.353429 14.890530 3.001945 -29.266988 -1.645555 5.516962 7.209416 -4.380213 -0.024548 -0.425831 0.000000 -0.000000 0.000000 0.988631 -2.875434 -26.508427 0.333807 -13.622934 5.538337 5.335956 -3.226536 -2.140569 0.000000 -0.000000 0.000000 -9.367716 6.591900 22.824199 -0.629557 -2.648092 -6.074892 2.691817 1.762264 -0.665199 -2.559307 4.723878 -13.632987 15.111070 -4.122890 -17.677831 -1.512347 -26.399635 -18.224125 -60.656220 -58.851202 33.868881 159.865775 -42.837478 -138.037419 35.794838 -15.303929 -20.380389 6.753359 33.104472 -8.023270 60.938778 61.567039 27.270289 -170.492834 41.546341 -158.856426 -36.847231 15.175941 -29.516217 
0.313907 0.160084 0.988932 94.971410 5.064558 112.435934 14.495367 2.955394 -29.382973 -1.566531 5.727345 7.320345 -4.417333 -0.177768 -0.478336 0.000000 -0.000000 0.000000 0.649522 -3.008952 -26.666003 0.276344 -13.674581 5.720902 5.439870 -3.005288 -2.202452 0.000000 -0.000000 0.000000 -8.785293 6.387347 22.493185 -0.586009 -2.711829 -6.120565 2.654797 1.669868 -0.522392 -2.524494 4.806380 -13.339530 14.699717 -4.391662 -17.518609 -1.565301 -26.372027 -18.158477 -61.117436 -58.803728 34.070843 160.105054 -43.214663 -137.380477 35.905747 -16.689831 -17.466953 6.900232 33.174055 -7.790821 60.449699 61.955955 27.027422 -170.528311 41.865195 -157.881993 -38.135882 16.090116 -26.951577 
0.314259 0.161140 0.989090 94.794588 4.832802 112.339024 14.170258 2.879245 -29.211636 -1.569313 5.811402 7.261971 -4.366950 -0.157650 -0.524273 0.000000 -0.000000 0.000000 0.334152 -3.053836 -26.674807 0.156836 -13.767955 5.963856 5.435998 -2.779923 -2.271876 0.000000 -0.000000 0.000000 -8.517782 6.082233 22.007275 -0.189211 -2.760940 -4.929035 2.763937 1.831956 -1.201341 -2.511025 4.839668 -13.068596 14.194103 -4.526608 -17.398467 -1.710857 -26.381982 -18.132091 -61.469021 -58.636106 34.257467 160.486789 -43.474124 -136.850578 35.760754 -17.791266 -15.287384 6.719885 33.339069 -7.765771 59.463489 62.278310 26.428793 -170.106178 42.084408 -156.803346 -38.554900 17.154351 -25.043051 
0.314560 0.162268 0.988894 94.570856 4.593946 112.257453 13.860940 2.794344 -28.991035 -1.554467 6.015235 7.051895 -4.347254 -0.226864 -0.494354 0.000000 -0.000000 0.000000 -0.027075 -3.047181 -26.709109 0.034408 -13.951644 6.155109 5.435396 -2.440550 -2.338058 0.000000 -0.000000 0.000000 -8.188269 5.688404 21.436145 0.186263 -2.821826 -3.507752 2.804996 2.023403 -1.968267 -2.440385 5.186652 -12.893352 13.557212 -4.745931 -17.320267 -1.762020 -26.306252 -18.284580 -62.075745 -58.361667 34.736815 160.704039 -43.778265 -135.863238 35.587113 -19.152030 -13.280164 6.510089 33.609924 -7.895029 58.828776 62.574651 26.597368 -169.384215 42.250731 -155.093240 -39.190216 18.109175 -23.392604 
0.314890 0.162972 0.988731 94.278521 4.227173 112.256922 13.388393 2.741512 -28.856971 -1.531121 6.306373 6.898999 -4.351253 -0.500136 -0.485736 0.000000 -0.000000 0.000000 -0.514547 -3.185860 -26.889203 -0.038300 -14.041926 6.446256 5.531453 -2.098063 -2.396300 0.000000 -0.000000 0.000000 -7.490125 5.653910 21.149746 0.166999 -2.865713 -3.339258 2.638482 1.841048 -2.013746 -2.294166 5.581215 -12.592984 13.192492 -4.944210 -16.885235 -1.585260 -26.262035 -18.065410 -62.338129 -58.509478 34.572871 160.887600 -44.014484 -135.344375 35.591711 -20.105187 -11.610820 7.191165 33.393047 -7.562992 58.831566 63.145179 26.333591 -169.481984 42.783115 -154.541784 -39.377491 18.876532 -22.072923 
0.315227 0.163850 0.988695 94.003813 3.993450 112.350705 13.079565 2.748329 -28.845757 -1.541112 6.664861 6.835607 -4.379825 -0.731142 -0.487042 0.000000 -0.000000 0.000000 -0.842456 -3.252659 -27.132251 -0.116839 -14.095480 6.681499 5.720053 -1.842456 -2.443107 0.000000 -0.000000 0.000000 -6.825695 5.270668 21.018007 0.275141 -2.885282 -3.781897 2.656135 1.893788 -1.684906 -2.571073 5.643057 -12.377702 12.801369 -5.048297 -16.779612 -1.472059 -25.995823 -17.860337 -62.896029 -58.343430 34.556607 161.249755 -43.980260 -135.042525 35.261245 -20.951145 -10.252724 7.256393 33.307099 -7.418161 59.025058 63.495955 26.302302 -169.521217 43.096964 -153.850161 -39.185012 19.823283 -20.494828 
0.314882 0.164678 0.988612 93.664808 3.682605 112.312170 12.722955 2.571688 -28.740749 -1.521821 7.016243 6.774157 -4.303690 -0.782014 -0.441233 0.000000 -0.000000 0.000000 -1.298094 -3.268299 -27.288312 -0.189170 -14.245602 6.902262 5.697025 -1.517826 -2.496714 0.000000 -0.000000 0.000000 -6.131159 4.986835 20.601860 0.350193 -2.979770 -3.067428 2.465429 1.981607 -1.957994 -2.707722 5.858878 -12.121720 12.480512 -5.418386 -16.845983 -1.269924 -25.967685 -17.686763 -62.887990 -58.206613 34.276964 161.330126 -43.825919 -134.905248 34.809419 -21.636810 -9.620931 7.404638 33.558214 -7.292140 60.446555 63.438899 26.945774 -169.588059 43.318559 -153.574904 -38.252312 21.019364 -18.841880 
0.315205 0.165209 0.988703 93.235753 3.384247 112.319841 12.322575 2.545057 -28.575594 -1.519851 7.217982 6.644802 -4.280015 -0.748336 -0.443315 0.000000 -0.000000 0.000000 -1.655745 -3.383929 -27.423266 -0.228807 -14.095179 7.020681 5.833017 -1.332187 -2.531544 0.000000 -0.000000 0.000000 -5.609932 4.724356 20.672126 0.393450 -3.014457 -3.710287 2.484318 2.105645 -1.642896 -2.806842 5.633988 -12.011723 12.289261 -5.294580 -16.588322 -1.457422 -25.719233 -17.612455 -63.665104 -57.985200 34.811556 161.544020 -43.987955 -134.825844 35.055154 -21.748790 -9.386625 7.496819 33.422491 -7.149661 60.480210 63.639864 26.846794 -169.664270 43.468914 -153.345910 -38.312786 21.686252 -17.372157 
0.315403 0.165532 0.988815 92.746753 3.131580 112.306270 11.974439 2.590077 -28.378034 -1.511644 7.480628 6.547901 -4.295840 -0.773380 -0.513308 0.000000 -0.000000 0.000000 -1.973819 -3.364959 -27.585249 -0.333155 -13.981619 7.210924 5.910030 -1.083540 -2.587185 0.000000 -0.000000 0.000000 -5.231497 4.502023 20.429076 0.594350 -3.064401 -3.632009 2.533478 2.176957 -1.719683 -3.018192 5.467178 -11.639953 12.085848 -5.255946 -16.631489 -1.561630 -25.502551 -17.589428 -64.329097 -57.695944 35.222397 161.806951 -43.988850 -134.967914 34.548098 -22.135621 -9.342469 7.779871 33.404937 -7.126776 60.761548 63.660717 27.276320 -169.441596 43.689140 -152.746441 -38.299082 22.521731 -16.515891 
0.315535 0.165976 0.988797 92.217900 2.901873 112.359178 11.659742 2.629187 -28.227385 -1.486630 7.860930 6.433679 -4.285809 -0.870758 -0.556919 0.000000 -0.000000 0.000000 -2.313543 -3.315068 -27.807000 -0.408318 -13.979018 7.390764 5.990743 -0.760175 -2.574684 0.000000 -0.000000 0.000000 -4.761838 4.234805 20.174142 0.692193 -3.126550 -3.746877 2.531429 2.238765 -1.696544 -3.184902 5.425465 -11.157116 11.865748 -5.115798 -16.644867 -1.773043 -25.296310 -17.579524 -64.955568 -57.368164 35.593286 162.340760 -44.149380 -135.022449 34.897783 -22.595008 -8.889092 8.135685 33.220399 -6.884142 61.255140 63.811267 27.434227 -169.667895 43.871490 -152.835015 -38.280092 23.315149 -16.342171 
